<svg width="28" height="28" viewBox="0 0 28 28" fill="none" xmlns="http://www.w3.org/2000/svg">
<path fill-rule="evenodd" clip-rule="evenodd" d="M2.61875 25.38C4.57341 27.3333 7.71475 27.3333 14.0001 27.3333C20.2854 27.3333 23.4281 27.3333 25.3801 25.38C27.3334 23.4293 27.3334 20.2853 27.3334 14C27.3334 7.71463 27.3334 4.57196 25.3801 2.61863C23.4294 0.666626 20.2854 0.666626 14.0001 0.666626C7.71475 0.666626 4.57208 0.666626 2.61875 2.61863C0.666748 4.57329 0.666748 7.71463 0.666748 14C0.666748 20.2853 0.666748 23.428 2.61875 25.38ZM10.6667 9.66663C9.8097 9.66663 8.97189 9.92077 8.25928 10.3969C7.54666 10.8731 6.99125 11.5499 6.66327 12.3417C6.33529 13.1335 6.24948 14.0048 6.41668 14.8454C6.58388 15.6859 6.99659 16.4581 7.60262 17.0641C8.20865 17.6701 8.98077 18.0828 9.82136 18.25C10.6619 18.4172 11.5332 18.3314 12.325 18.0034C13.1169 17.6755 13.7936 17.12 14.2698 16.4074C14.7459 15.6948 15.0001 14.857 15.0001 14C15.0001 13.7347 15.1054 13.4804 15.293 13.2929C15.4805 13.1053 15.7349 13 16.0001 13C16.2653 13 16.5197 13.1053 16.7072 13.2929C16.8947 13.4804 17.0001 13.7347 17.0001 14C17.0001 15.2526 16.6286 16.4771 15.9327 17.5186C15.2368 18.5601 14.2477 19.3718 13.0904 19.8512C11.9331 20.3305 10.6597 20.456 9.43118 20.2116C8.20263 19.9672 7.07414 19.364 6.18841 18.4783C5.30267 17.5926 4.69948 16.4641 4.45511 15.2355C4.21073 14.007 4.33616 12.7336 4.81551 11.5763C5.29487 10.419 6.10663 9.4299 7.14814 8.73398C8.18965 8.03807 9.41413 7.66663 10.6667 7.66663C10.932 7.66663 11.1863 7.77198 11.3739 7.95952C11.5614 8.14706 11.6667 8.40141 11.6667 8.66663C11.6667 8.93184 11.5614 9.1862 11.3739 9.37373C11.1863 9.56127 10.932 9.66663 10.6667 9.66663ZM21.6667 14C21.6667 15.1492 21.2102 16.2514 20.3975 17.0641C19.5849 17.8767 18.4827 18.3333 17.3334 18.3333C17.0682 18.3333 16.8138 18.4386 16.6263 18.6262C16.4388 18.8137 16.3334 19.0681 16.3334 19.3333C16.3334 19.5985 16.4388 19.8529 16.6263 20.0404C16.8138 20.2279 17.0682 20.3333 17.3334 20.3333C18.586 20.3333 19.8105 19.9618 20.852 19.2659C21.8935 18.57 22.7053 17.5809 23.1847 16.4236C23.664 15.2664 23.7894 13.9929 23.5451 12.7644C23.3007 11.5358 22.6975 10.4073 21.8118 9.52162C20.926 8.63588 19.7975 8.03269 18.569 7.78832C17.3404 7.54395 16.067 7.66937 14.9098 8.14872C13.7525 8.62808 12.7634 9.43984 12.0674 10.4813C11.3715 11.5229 11.0001 12.7473 11.0001 14C11.0001 14.2652 11.1054 14.5195 11.293 14.7071C11.4805 14.8946 11.7349 15 12.0001 15C12.2653 15 12.5197 14.8946 12.7072 14.7071C12.8947 14.5195 13.0001 14.2652 13.0001 14C13.0001 12.8507 13.4566 11.7485 14.2693 10.9358C15.0819 10.1232 16.1841 9.66663 17.3334 9.66663C18.4827 9.66663 19.5849 10.1232 20.3975 10.9358C21.2102 11.7485 21.6667 12.8507 21.6667 14Z" fill="#633CFF"/>
</svg>
